<svg width="536" height="376" viewBox="0 0 536 376" fill="none" xmlns="http://www.w3.org/2000/svg">
<path d="M282.804 81.5189C276.094 81.7852 270.168 77.0278 266.504 71.3982C262.84 65.7687 260.815 59.1991 257.763 53.1936C252.759 43.3444 244.394 34.7591 233.748 32.0958C223.101 29.4324 210.282 34.0593 205.482 44.1957C200.771 54.1753 203.524 68.2179 194.668 74.6987C188.093 79.5344 179.007 76.9494 171.705 73.6542C164.67 70.4843 156.363 66.6982 148.595 69.5652C140.707 72.4792 136.666 80.7303 137.404 88.8091C138.299 98.5486 143.915 106.565 149.474 114.252C151.903 117.61 154.185 121.213 154.986 125.281C158.095 141.313 132.347 143.23 122.433 146.212C117.131 147.81 111.625 150.144 108.222 154.714C101.512 163.732 107.427 173.195 116.78 176.647C123.124 179.007 130.008 178.986 136.32 181.347C140.204 182.793 143.853 185.253 145.936 188.825C151.249 197.933 142.795 206.497 135.331 210.696C113.221 223.146 85.4265 240.462 94.7751 270.339C102.129 293.839 125.004 299.259 146.501 292.314C158.744 288.355 170.27 281.869 183.142 280C191.517 278.762 200.536 279.096 207.796 283.974C218.144 290.93 218.788 303.818 219.165 315.104C219.51 325.313 221.311 336.483 229.539 343.466C239.678 352.061 257.685 353.205 270.038 349.878C282.663 346.484 289.991 337.345 292.729 324.974C293.875 319.804 294.775 314.461 297.345 309.829C302.344 300.821 313.996 298.497 321.868 305.129C325.37 308.069 328.05 311.871 331.458 314.916C339.257 321.887 351.307 324.368 361.294 321.25C368.664 318.947 375.081 312.785 376.238 305.171C377.112 299.427 375.029 293.635 372.223 288.559C366.57 278.339 353.903 263.91 363.597 252.207C371.516 242.624 387.366 245.679 398.201 245.638C412.01 245.585 427.257 241.664 436.365 230.613C443.61 221.819 445.693 208.445 439.61 198.81C435.423 192.167 428.168 188.11 420.976 184.919C413.784 181.728 406.199 179.044 400.091 174.088C393.982 169.132 389.549 161.158 391.365 153.518C395.144 137.59 417.254 136.075 418.725 117.646C419.772 104.763 409.68 95.3473 397.071 96.5223C389.073 97.2639 361.712 111.521 359.964 94.3029C359.477 89.5141 363.011 85.3363 365.068 80.9444C369.779 70.8447 366.02 57.8361 357.164 51.4754C348.307 45.1148 335.467 45.4908 326.281 51.6634C321.047 55.1623 317.021 60.1966 312.321 64.4109C304.276 71.6123 297.413 84.224 282.846 81.5293" fill="#DAE0F4"/>
<path d="M282.803 81.3517C266.76 81.2786 263.389 61.6535 257.406 50.6607C251.973 40.6863 242.661 31.8973 230.983 30.3776C220.619 29.0251 208.999 33.8243 204.319 43.522C201.99 48.3577 201.388 53.7471 200.493 58.9745C199.551 64.4631 198.284 70.641 193.264 73.8996C187.569 77.5917 180.121 75.5342 174.337 73.1685C168.228 70.6618 162.334 67.4241 155.587 67.0376C143.459 66.4005 134.843 77.2001 135.864 88.8091C136.435 95.3003 139.109 101.342 142.517 106.81C146.113 112.612 151.635 118.048 153.31 124.821C155.639 134.221 146.171 138.399 138.738 140.572C130.546 142.963 121.757 143.658 114.136 147.726C109.059 150.431 104.62 155.037 103.83 160.949C103.16 165.973 105.515 170.798 109.258 174.083C114.398 178.59 121.035 179.655 127.547 180.845C134.058 182.036 141.763 183.911 144.951 190.418C150.981 202.737 131.97 210.429 124.081 215.25C107.358 225.464 89.1001 240.598 91.2724 262.317C92.3193 272.898 97.2919 283.3 105.929 289.75C113.979 295.766 124.396 297.687 134.257 296.742C147.343 295.494 158.89 289.107 171.138 284.945C183.178 280.846 199.99 277.906 209.93 288.162C218.405 296.904 216.552 310.268 217.782 321.318C219.075 333.12 223.906 343.904 235.171 349.142C245.367 353.879 257.678 354.505 268.566 352.087C279.281 349.711 287.844 342.907 292.121 332.765C296.397 322.624 295.198 306.215 308.693 303.354C315.309 301.954 320.302 305.552 324.568 310.142C328.834 314.733 333.032 319.057 339.015 321.558C349.756 326.049 363.544 325.214 372.055 316.623C374.063 314.656 375.641 312.294 376.689 309.687C377.737 307.081 378.232 304.286 378.142 301.479C377.844 294.941 374.714 289.055 371.338 283.608C365.915 274.851 356.482 261.837 365.773 252.369C373.552 244.452 387.093 247.209 396.997 247.361C408.58 247.544 420.96 245.173 430.559 238.389C440.259 231.532 446.378 220.054 444.854 208.048C443.206 194.992 432.329 187.718 421.137 182.819C409.946 177.921 392.547 171.696 392.872 156.62C393.097 146.948 402.54 141.569 409.245 136.253C416.667 130.373 421.76 122.607 420.452 112.753C419.07 102.382 410.334 94.8616 399.923 94.5169C392.558 94.2715 385.355 98.0942 378.305 99.7392C371.992 101.227 360.885 102.413 361.722 92.6265C362.01 89.3156 364.135 86.3964 365.664 83.5555C367.126 80.9347 368.116 78.0784 368.59 75.1164C369.32 69.8858 368.501 64.5561 366.234 59.7839C361.261 49.1254 349.704 43.8092 338.251 45.308C325.5 46.9791 316.429 57.1154 308.373 66.2856C301.647 73.9571 294.418 82.7983 282.966 80.8765C282.249 80.7512 281.919 81.8478 282.662 81.9732C287.42 82.7722 292 82.4536 296.324 80.1558C300.48 77.9468 303.924 74.5785 307.133 71.1893C310.949 67.1525 315.403 63.7737 319.329 59.8414C324.176 54.9952 329.274 50.7704 336.079 49.1828C348.118 46.3837 360.633 52.3684 364.313 64.4787C365.189 67.2608 365.505 70.1879 365.245 73.0923C364.985 75.9967 364.152 78.8212 362.795 81.404C360.215 86.2972 357.037 90.9449 358.608 96.7259C360.701 104.392 368.71 105.05 375.358 104.006C382.581 102.883 389.25 99.5512 396.416 98.3501C398.91 97.9383 401.464 98.0667 403.904 98.7268C406.345 99.3869 408.614 100.563 410.558 102.175C412.503 103.788 414.077 105.799 415.173 108.072C416.27 110.345 416.863 112.826 416.913 115.348C417.091 125.391 409.795 131.109 402.477 136.624C395.672 141.768 388.815 148.113 389.035 157.377C389.354 171.012 402.226 178.788 413.302 183.592C424.692 188.538 438.735 193.859 440.986 207.756C443.012 220.237 435.438 231.731 424.76 237.59C414.401 243.288 402.592 244.019 391.04 243.512C381.278 243.084 369.233 242.598 362.324 250.86C344.742 271.979 389.627 294.157 369.616 314.263C360.539 323.402 344.757 322.462 334.755 315.38C329.573 311.725 326.38 305.829 321.014 302.372C318.97 301.072 316.679 300.206 314.285 299.826C311.891 299.446 309.444 299.561 307.096 300.163C304.719 300.799 302.495 301.905 300.556 303.416C298.616 304.927 297.001 306.811 295.806 308.957C292.586 314.66 292.079 321.208 290.273 327.376C287.064 338.342 279.082 346.03 267.906 348.588C257.103 351.059 244.153 350.364 234.406 344.719C222.943 338.081 221.32 325.005 220.876 312.989C220.467 302.602 219.253 290.872 210.595 283.828C200.571 275.665 186.224 276.694 174.515 280.026C161.863 283.624 150.222 290.617 137.131 292.7C127.342 294.267 116.717 292.993 108.509 287.139C99.6736 280.872 94.748 269.55 94.7218 258.871C94.7218 248.515 100.061 239.548 107.248 232.41C114.544 225.187 123.364 219.62 132.2 214.471C140.575 209.568 152.902 201.478 148.238 189.927C142.7 176.193 125.542 179.843 114.827 174.015C109.807 171.284 105.714 165.967 107.347 160.019C109.106 153.612 115.487 150.228 121.339 148.301C132.493 144.645 158.503 143.601 156.66 126.367C155.985 120.022 151.777 115.004 148.259 109.964C144.569 104.674 141.093 99.0603 139.58 92.731C138.131 86.6575 138.811 79.9992 143.093 75.1582C148.05 69.5547 155.441 69.3563 162.167 71.4608C172.688 74.7508 185.721 83.9942 196.216 75.3253C204.372 68.5364 202.66 56.2798 205.732 47.1253C209.575 35.6938 222.954 30.3672 234.171 33.4326C247.189 36.9942 254.967 48.6606 260.18 60.2487C264.452 69.7323 270.55 82.0149 282.788 81.6598C282.826 81.6529 282.861 81.6327 282.887 81.6026C282.912 81.5725 282.926 81.5346 282.926 81.4953C282.926 81.4561 282.912 81.4182 282.887 81.3881C282.861 81.358 282.826 81.3377 282.788 81.3308L282.803 81.3517Z" fill="#DAE0F4"/>
<path d="M281.759 277.013C280.827 275.446 281.183 277.572 281.534 279.702C282.01 278.971 282.481 278.24 281.759 277.013Z" fill="#73BDE2"/>
<path d="M283.789 275.822C283.395 275.062 282.725 274.48 281.915 274.198C281.597 274.118 281.266 274.102 280.942 274.151C280.618 274.2 280.306 274.312 280.026 274.483C279.746 274.653 279.503 274.877 279.31 275.142C279.118 275.407 278.98 275.707 278.905 276.026C278.612 277.425 279.031 278.945 279.261 280.329C279.385 280.77 279.637 281.165 279.986 281.464C280.334 281.764 280.763 281.953 281.219 282.01C281.677 282.071 282.144 281.997 282.561 281.797C282.978 281.598 283.328 281.282 283.569 280.888C283.96 280.331 284.237 279.703 284.386 279.039C284.579 277.93 284.367 276.789 283.789 275.822C283.469 275.289 282.953 274.903 282.351 274.746C281.75 274.589 281.11 274.673 280.57 274.981C280.04 275.305 279.655 275.82 279.497 276.42C279.339 277.019 279.42 277.656 279.722 278.198C279.853 278.449 279.858 278.438 279.722 278.156C279.761 278.258 279.791 278.363 279.811 278.47C279.774 278.094 279.758 278.026 279.764 278.277C279.832 277.874 279.837 277.801 279.764 278.047C279.654 278.428 280.052 277.525 279.764 278.073C279.68 278.224 279.58 278.371 279.486 278.517L283.794 279.081L283.637 278.12C283.637 277.968 283.59 277.817 283.569 277.666C283.548 277.514 283.569 277.143 283.569 277.707C283.569 277.498 283.517 277.29 283.511 277.081C283.511 276.992 283.511 276.903 283.511 276.814V276.726C283.511 276.989 283.457 277.249 283.354 277.491C283.25 277.734 283.099 277.953 282.909 278.136L281.863 278.741H281.894H280.643L279.732 278.219C279.832 278.324 279.806 278.292 279.669 278.125C279.382 277.754 279.669 278.156 279.701 278.219C280.017 278.757 280.534 279.148 281.138 279.306C281.743 279.463 282.386 279.375 282.925 279.06C283.465 278.745 283.856 278.229 284.014 277.626C284.172 277.022 284.084 276.381 283.768 275.843L283.789 275.822Z" fill="#73BDE2"/>
<path d="M292.707 324.968C293.754 320.216 294.607 315.323 296.732 310.962C290.974 299.808 285.217 288.966 281.306 282.376L281.348 283.473C267.027 293.515 238.426 308.973 219.441 320.065C220.232 328.781 222.582 337.596 229.518 343.46C239.657 352.056 257.663 353.2 270.016 349.873C282.641 346.5 289.969 337.382 292.707 324.968Z" fill="#73BDE2"/>
<path d="M294.976 325.616C295.903 321.37 296.672 317.02 298.378 312.994C299.315 310.785 298.902 310.085 297.855 307.991C296.808 305.897 295.704 303.813 294.615 301.771C290.982 294.857 287.323 287.943 283.366 281.211C282.215 279.253 278.886 280.026 278.975 282.397L279.016 283.494L280.184 281.467C260.555 295.165 238.932 306.012 218.277 318.054C217.919 318.259 217.622 318.555 217.417 318.912C217.212 319.269 217.106 319.674 217.109 320.086C217.848 327.757 219.627 335.517 224.537 341.669C229.06 347.33 235.812 350.672 242.747 352.385C256.085 355.675 272.74 354.605 283.649 345.507C289.7 340.458 293.27 333.178 295.002 325.616C295.677 322.671 291.139 321.438 290.459 324.368C289.124 330.191 286.732 335.784 282.523 340.134C278.315 344.484 272.719 347.027 266.784 348.254C255.163 350.651 239.78 349.638 230.593 341.277C224.642 335.862 222.564 327.82 221.82 320.086L220.648 322.112C232.457 315.234 244.407 308.612 256.242 301.771C261.848 298.523 267.438 295.244 272.939 291.823C275.368 290.309 277.786 288.768 280.163 287.17C282.178 285.817 283.79 285.013 283.691 282.397L279.273 283.582C284.759 292.914 289.742 302.555 294.699 312.169V309.824C292.526 314.477 291.521 319.412 290.433 324.394C289.794 327.313 294.337 328.577 294.976 325.616Z" fill="#73BDE2"/>
<path d="M281.531 279.702C281.054 280.439 280.583 281.17 281.305 282.397C282.237 283.974 281.886 281.838 281.531 279.702Z" fill="#73BDE2"/>
<path d="M279.497 278.517C278.776 279.539 278.481 280.801 278.675 282.037C278.88 283.253 279.817 284.888 281.115 285.201C282.941 285.64 284.287 284.157 284.255 282.439C284.189 281.31 284.038 280.187 283.805 279.081C283.606 277.864 282.031 277.075 280.905 277.436C280.313 277.618 279.813 278.019 279.508 278.557C279.202 279.094 279.114 279.728 279.262 280.329L279.419 281.285C279.419 281.436 279.466 281.587 279.487 281.739C279.508 281.89 279.487 282.292 279.487 281.702C279.487 281.906 279.539 282.115 279.55 282.324C279.544 282.414 279.544 282.505 279.55 282.595V282.668C279.551 282.404 279.605 282.143 279.708 281.9C279.811 281.657 279.962 281.437 280.152 281.253L281.198 280.653H282.413C282.575 280.684 283.46 281.133 283.507 281.436C283.468 281.347 283.417 281.265 283.355 281.191C283.02 280.668 283.46 281.567 283.292 281.07C283.151 280.658 283.292 281.431 283.292 281.18C283.292 280.929 283.161 281.791 283.292 281.342C283.423 280.893 283.072 281.713 283.219 281.483C283.365 281.253 283.454 281.07 283.585 280.867C283.895 280.328 283.98 279.689 283.821 279.088C283.663 278.487 283.273 277.972 282.737 277.655C282.191 277.35 281.547 277.27 280.942 277.431C280.337 277.592 279.819 277.981 279.497 278.517V278.517Z" fill="#73BDE2"/>
<path d="M201.839 137.245L173.573 177.9C172.992 178.741 172.374 179.718 172.594 180.72C172.821 181.405 173.239 182.012 173.798 182.47C208.809 216.867 244.612 250.44 281.208 283.191C312.373 248.922 340.539 206.716 368.172 169.555C353.903 155.184 349.987 148.395 333.824 127.208C298.23 122.952 236.825 129.574 201.839 137.271" fill="#73BDE2"/>
<path d="M281.209 283.191C299.984 262.547 317.671 239.021 334.814 215.448C319.76 216.677 304.709 217.92 289.662 219.177L268.018 220.984L218.098 225.161C238.875 244.766 259.912 264.109 281.209 283.191Z" fill="#303757"/>
<path d="M291.309 219.276L258.699 221.501C267.284 240.713 274.01 262.657 281.306 282.397C282.83 261.994 287.305 239.35 291.309 219.276Z" fill="#0088CC"/>
<path d="M217.238 224.326L258.7 221.501C251.874 206.227 244.656 191.147 237.045 176.26C230.963 190.951 223.315 209.641 217.238 224.326Z" fill="#0088CC"/>
<path d="M301.861 171.435C298.197 187.337 294.533 203.291 291.309 219.281L334.131 216.357C326.112 201.432 313.816 183.446 301.861 171.435Z" fill="#0088CC"/>
<path d="M330.567 127.433C301.778 124.571 258.155 128.153 224.435 133.537L204.586 137.266C215.753 149.674 226.931 162.08 238.123 174.485L264.53 134.493C265.21 133.449 266.043 132.331 267.273 132.174C268.503 132.018 269.623 132.921 270.544 133.778C282.816 145.264 293.413 158.409 302.029 172.829C309.315 162.14 321.176 143.021 330.567 127.433Z" fill="#DAE0F4"/>
<path d="M224.756 132.968L206.812 136.337C217.072 138.72 227.009 142.318 236.413 147.053C237.017 147.432 237.715 147.634 238.428 147.637C238.998 147.536 239.537 147.302 239.998 146.953L266.453 130.289C267.143 129.77 267.957 129.437 268.814 129.323C269.97 129.276 270.991 130.018 271.918 130.712C279.786 136.567 288.497 141.199 297.755 144.452C298.833 144.913 299.999 145.138 301.173 145.11C302.192 144.955 303.175 144.615 304.072 144.107C312.564 139.927 320.827 135.299 328.826 130.242L330.867 126.863C302.11 123.996 258.476 127.568 224.756 132.968Z" fill="white"/>
<path d="M201.519 137.057L179.739 167.962L174.164 175.874C172.955 177.587 171.102 179.53 172.249 181.739C173.348 183.827 175.86 185.728 177.53 187.368C180.189 189.979 182.85 192.59 185.512 195.201C205.379 214.579 225.531 233.66 245.969 252.442C257.422 262.991 268.954 273.453 280.563 283.828C280.736 283.994 280.967 284.087 281.207 284.087C281.448 284.087 281.678 283.994 281.851 283.828C306.976 256.15 328.594 225.574 350.421 195.322C356.54 186.841 362.675 178.37 368.915 169.983C369.011 169.819 369.05 169.627 369.025 169.438C369 169.249 368.914 169.073 368.778 168.939C361.09 161.084 353.954 152.708 347.422 143.872C343.282 138.347 339.44 132.352 334.86 127.161C333.499 125.594 330.505 125.955 328.526 125.782C325.762 125.547 322.988 125.375 320.214 125.26C293.838 124.075 267.195 126.305 241.054 129.73C227.832 131.449 214.584 133.438 201.592 136.457C200.546 136.702 200.985 138.295 202.037 138.076C226.62 133.063 251.508 129.677 276.538 127.939C289.431 127.025 302.37 126.519 315.273 126.843C320.638 126.978 325.998 127.255 331.337 127.803C333.295 128.007 333.64 128.451 334.854 130.054C335.985 131.537 337.109 133.024 338.225 134.514C340.291 137.264 342.352 140.022 344.407 142.786C351.594 152.405 359.063 161.617 367.522 170.156L367.386 169.111C345.161 199.113 324.093 229.992 300.601 259.064C294.136 267.064 287.483 274.908 280.563 282.527H281.851C262.055 264.803 242.485 246.832 223.142 228.613C213.536 219.561 203.983 210.454 194.484 201.291C189.728 196.705 184.986 192.113 180.257 187.514C179.048 186.334 177.844 185.143 176.593 183.984C176.101 183.525 175.593 183.07 175.101 182.611C174.054 181.608 173.84 181.707 173.798 180.161C173.746 178.339 174.908 177.211 175.892 175.738L179.195 170.918L202.126 137.433C202.399 137.036 201.755 136.671 201.483 137.057H201.519Z" fill="#303757"/>
<path d="M176.075 182.793C223.948 172.401 273.156 172.198 321.909 171.691L364.051 171.252C364.085 171.246 364.115 171.228 364.137 171.202C364.158 171.176 364.17 171.143 364.17 171.109C364.17 171.075 364.158 171.042 364.137 171.016C364.115 170.989 364.085 170.972 364.051 170.965C339.136 171.231 314.22 171.383 289.31 171.842C264.823 172.297 240.306 173.237 215.96 176.057C202.548 177.58 189.22 179.772 176.027 182.626C175.917 182.626 175.965 182.814 176.075 182.793V182.793Z" fill="#303757"/>
<path d="M204.84 136.77L238.366 173.999C238.379 174.012 238.394 174.022 238.411 174.027C238.428 174.033 238.446 174.035 238.464 174.032C238.482 174.03 238.499 174.023 238.514 174.013C238.529 174.002 238.541 173.989 238.549 173.973C243.543 166.446 248.528 158.917 253.504 151.387L260.952 140.102C262.099 138.363 263.229 136.613 264.397 134.88C264.845 134.17 265.33 133.485 265.852 132.827L269.584 132.368C270.51 132.691 271.678 134.206 272.4 134.906C283.947 146.02 293.965 158.612 302.194 172.354C302.209 172.379 302.231 172.399 302.257 172.414C302.282 172.428 302.311 172.435 302.341 172.435C302.37 172.435 302.399 172.428 302.424 172.414C302.45 172.399 302.472 172.379 302.487 172.354C312.52 157.603 322.032 142.516 331.025 127.093C331.041 127.054 331.042 127.01 331.028 126.97C331.014 126.93 330.986 126.896 330.95 126.874C330.913 126.853 330.87 126.845 330.828 126.853C330.786 126.86 330.748 126.883 330.721 126.916C323.435 139.421 315.802 151.716 307.821 163.8C306.983 165.064 303.487 171.78 302.016 171.399C301.493 171.268 299.922 168.02 299.598 167.518C298.608 165.952 297.603 164.448 296.567 162.939C289.499 152.597 281.369 143.018 272.311 134.357C271.107 133.214 269.49 131.224 267.574 131.454C265.386 131.736 264.009 134.921 262.999 136.457L250.96 154.734C249.044 157.631 247.125 160.529 245.202 163.429L242.349 167.78L240.632 170.391C240.214 171.033 239.533 172.709 238.916 173.002C237.497 173.681 235.142 170.088 234.341 169.2L230.153 164.547L221.778 155.246L205.028 136.639C204.939 136.54 204.788 136.692 204.882 136.791L204.84 136.77Z" fill="#303757"/>
<path d="M218.852 220.336L231.388 190.178C232.383 187.782 233.383 185.389 234.388 182.997L235.989 179.169C236.686 177.498 236.926 176.344 238.005 178.48C240.252 182.94 242.436 187.431 244.558 191.953C253.456 210.863 261.345 230.216 268.851 249.706C273.038 260.584 277.105 271.509 281.162 282.439C281.175 282.472 281.198 282.5 281.229 282.518C281.259 282.537 281.295 282.544 281.331 282.539C281.366 282.534 281.399 282.517 281.423 282.492C281.448 282.466 281.463 282.432 281.466 282.397C283.099 260.641 286.951 239.126 291.479 217.803C293.683 207.406 296.064 197.05 298.467 186.705C298.865 185.008 301.084 172.083 302.403 172.198C302.995 172.239 304.56 174.417 304.973 174.856C305.818 175.754 306.653 176.659 307.48 177.571C309.225 179.514 310.94 181.495 312.626 183.514C319.975 192.415 326.434 202.012 331.909 212.168C332.019 212.367 332.323 212.168 332.213 211.991C324.126 197.06 313.941 183.36 301.969 171.305C301.95 171.285 301.926 171.271 301.9 171.264C301.874 171.256 301.847 171.256 301.82 171.263C301.794 171.27 301.77 171.284 301.751 171.303C301.732 171.322 301.719 171.346 301.712 171.372C294.907 200.732 287.726 230.075 283.591 259.957C283.141 263.223 282.729 266.492 282.355 269.764C282.225 270.929 280.701 281.201 281.23 281.41C280.707 281.211 279.99 278.355 279.796 277.822L277.781 272.386C276.535 269.051 275.287 265.715 274.038 262.38C268.741 248.311 263.308 234.29 257.513 220.414C251.263 205.437 244.605 190.601 237.172 176.166C237.11 176.041 236.947 176.093 236.905 176.203C230.882 190.909 224.833 205.602 218.758 220.284C218.758 220.346 218.831 220.373 218.852 220.315V220.336Z" fill="#303757"/>
<path d="M206.12 157.335C203.994 160.886 201.889 164.451 199.802 168.03C199.777 168.072 199.771 168.123 199.784 168.17C199.797 168.217 199.827 168.257 199.87 168.281C199.912 168.305 199.962 168.312 200.01 168.299C200.057 168.286 200.097 168.255 200.121 168.213C202.18 164.62 204.211 161.012 206.214 157.387C206.217 157.381 206.219 157.374 206.22 157.367C206.221 157.36 206.221 157.353 206.219 157.346C206.217 157.34 206.213 157.333 206.209 157.328C206.205 157.322 206.199 157.318 206.193 157.314C206.187 157.311 206.18 157.309 206.173 157.308C206.166 157.307 206.159 157.308 206.152 157.31C206.145 157.311 206.139 157.315 206.133 157.319C206.128 157.323 206.123 157.329 206.12 157.335V157.335Z" fill="white"/>
<path d="M249.922 167.075C255.68 158.453 262.066 149.46 265.808 139.752C265.939 139.423 265.432 139.23 265.254 139.522C262.422 143.924 260.134 148.724 257.59 153.293C255.047 157.863 252.309 162.385 249.435 166.787C249.231 167.095 249.723 167.377 249.927 167.075H249.922Z" fill="white"/>
<path d="M266.71 157.857L268.667 155.079C268.73 154.99 268.589 154.912 268.526 154.996L266.432 157.701C266.312 157.857 266.584 158.024 266.705 157.857H266.71Z" fill="white"/>
<path d="M314.631 164.479C320.148 156.62 326.115 148.405 329.921 139.548C329.982 139.443 330 139.318 329.969 139.199C329.938 139.081 329.861 138.981 329.756 138.919C329.65 138.857 329.524 138.84 329.406 138.871C329.288 138.902 329.187 138.978 329.125 139.083C323.938 147.34 319.703 156.118 314.217 164.234C314.045 164.495 314.453 164.725 314.631 164.479V164.479Z" fill="white"/>
<path d="M330.344 159.586C330.868 159.038 331.391 158.505 331.915 157.936C331.952 157.892 331.971 157.835 331.969 157.778C331.966 157.72 331.942 157.666 331.901 157.625C331.86 157.584 331.806 157.56 331.748 157.558C331.691 157.556 331.634 157.575 331.59 157.612C331.03 158.134 330.506 158.656 329.967 159.21C329.727 159.455 330.109 159.837 330.344 159.586Z" fill="white"/>
<path d="M257.491 219.135C264.296 239.047 271.409 258.923 279.638 278.303C279.774 278.626 280.339 278.391 280.208 278.062C272.409 258.516 264.599 238.953 257.58 219.109C257.58 219.051 257.47 219.077 257.491 219.135V219.135Z" fill="white"/>
<path d="M182.111 173.555C186.021 169.101 189.701 164.474 193.239 159.722C196.678 155.11 200.74 150.081 202.818 144.676C203.048 144.076 202.185 143.846 201.86 144.274C198.432 148.771 195.977 154.197 192.899 158.97C189.587 164.03 185.963 168.88 182.048 173.493C182.006 173.534 182.048 173.602 182.111 173.555V173.555Z" fill="white"/>
<path d="M194.797 167.257C197.691 163.582 200.315 159.702 202.649 155.648C202.672 155.604 202.677 155.553 202.663 155.505C202.649 155.457 202.617 155.417 202.574 155.392C202.531 155.367 202.479 155.36 202.431 155.371C202.382 155.383 202.34 155.413 202.314 155.455C200.003 159.516 197.483 163.455 194.766 167.257C194.766 167.257 194.766 167.294 194.797 167.257V167.257Z" fill="white"/>
<path d="M199.886 205.829C201.051 201.29 202.47 196.819 204.137 192.439C205.817 188.037 208.021 183.901 209.826 179.566C210.099 178.903 209.026 178.48 208.68 179.086C204.137 187.102 201.588 196.841 199.672 205.771C199.664 205.8 199.668 205.83 199.683 205.855C199.698 205.881 199.722 205.899 199.75 205.907C199.779 205.915 199.809 205.911 199.835 205.896C199.86 205.881 199.879 205.857 199.886 205.829Z" fill="#DAE0F4"/>
<path d="M206.56 204.293C209.146 196.089 212.711 188.104 216.558 180.443C216.631 180.297 216.411 180.167 216.338 180.313C212.522 188.115 209.465 196.126 206.508 204.278C206.508 204.309 206.55 204.325 206.56 204.278V204.293Z" fill="#DAE0F4"/>
<path d="M268.225 173.42C262.955 182.48 258.501 191.989 254.914 201.834C254.783 202.189 255.354 202.356 255.484 201.99C258.969 192.145 263.247 182.597 268.277 173.44C268.277 173.44 268.277 173.399 268.246 173.44L268.225 173.42Z" fill="#DAE0F4"/>
<path d="M274.214 176.25C268.911 187.149 263.441 197.995 258.458 209.046C258.327 209.343 258.756 209.604 258.903 209.307C264.342 198.46 269.314 187.373 274.433 176.375C274.501 176.229 274.282 176.099 274.214 176.25V176.25Z" fill="#DAE0F4"/>
<path d="M331.091 173.728C329.092 178.459 327.076 183.175 324.857 187.828C324.711 188.131 325.161 188.386 325.302 188.089C327.443 183.389 329.448 178.642 331.123 173.759C331.123 173.733 331.096 173.728 331.091 173.759V173.728Z" fill="#DAE0F4"/>
<path d="M335.912 174.824L329.913 187.561C329.798 187.796 330.159 188 330.258 187.765L335.943 174.845C335.943 174.845 335.943 174.803 335.912 174.845V174.824Z" fill="#DAE0F4"/>
<path d="M178.295 179.18C187.11 177.143 195.998 175.623 204.948 174.328C209.508 173.67 214.082 173.148 218.673 172.715C223.018 172.302 227.509 172.224 231.759 171.284C232.282 171.164 232.115 170.432 231.639 170.385C227.048 169.889 222.217 170.558 217.652 171.09C213.433 171.578 209.228 172.164 205.037 172.85C195.993 174.399 187.048 176.478 178.248 179.075C178.234 179.079 178.222 179.089 178.216 179.102C178.209 179.114 178.207 179.129 178.211 179.143C178.215 179.157 178.225 179.169 178.238 179.175C178.251 179.182 178.265 179.184 178.279 179.18H178.295Z" fill="#DAE0F4"/>
<path d="M246.404 171.038C263.374 169.733 280.317 170.829 297.292 170.182C297.575 170.182 297.846 170.07 298.045 169.87C298.245 169.671 298.357 169.401 298.357 169.119C298.357 168.837 298.245 168.567 298.045 168.368C297.846 168.168 297.575 168.056 297.292 168.056C280.385 167.477 263.148 168.72 246.398 171.002V171.038H246.404Z" fill="#DAE0F4"/>
<path d="M311.311 169.696C319.775 168.85 327.93 167.921 336.436 168.26C340.545 168.427 344.648 168.453 348.752 168.72C352.997 168.996 357.269 169.508 361.519 169.628C361.72 169.623 361.914 169.547 362.064 169.413C362.214 169.279 362.311 169.095 362.338 168.896C362.366 168.697 362.321 168.494 362.212 168.325C362.103 168.156 361.937 168.031 361.744 167.973C353.735 166.02 344.628 165.706 336.436 166.349C328.108 167.007 319.482 167.915 311.311 169.628C311.274 169.628 311.279 169.701 311.311 169.696V169.696Z" fill="#DAE0F4"/>
<path d="M237.034 182.073C234.808 188.946 232.237 195.704 229.329 202.319C227.963 205.421 226.607 208.534 225.142 211.594C223.729 214.571 222.001 217.479 220.907 220.587C220.572 221.542 221.954 221.976 222.478 221.239C224.498 218.357 225.843 214.91 227.267 211.704C228.607 208.675 229.884 205.625 231.041 202.513C233.491 195.839 235.579 189.044 237.359 182.146C237.364 182.106 237.354 182.066 237.332 182.032C237.31 181.999 237.276 181.975 237.238 181.964C237.199 181.953 237.158 181.957 237.121 181.974C237.085 181.991 237.056 182.02 237.04 182.057L237.034 182.073Z" fill="#DAE0F4"/>
<path d="M220.565 223.229C220.565 223.193 220.639 223.161 220.665 223.146L220.759 223.083C220.768 223.079 220.775 223.074 220.781 223.067C220.788 223.06 220.792 223.051 220.794 223.042C220.796 223.033 220.796 223.023 220.793 223.014C220.791 223.005 220.786 222.997 220.78 222.99C220.773 222.984 220.765 222.978 220.757 222.975C220.748 222.972 220.738 222.971 220.729 222.973C220.72 222.974 220.711 222.978 220.703 222.983C220.696 222.989 220.69 222.996 220.686 223.005L220.623 223.104C220.623 223.104 220.576 223.198 220.539 223.203C220.503 223.208 220.503 223.203 220.539 223.245C220.576 223.287 220.586 223.245 220.586 223.245L220.565 223.229Z" fill="#DAE0F4"/>
<path d="M303.351 174.877C302.194 181.509 300.733 188.068 299.053 194.596C297.373 201.123 295.101 207.515 293.494 214.048C293.248 215.041 294.614 215.354 294.986 214.461C297.603 208.132 299.053 201.144 300.44 194.465C301.78 188 302.691 181.441 303.387 174.882C303.387 174.882 303.356 174.856 303.351 174.882V174.877Z" fill="#DAE0F4"/>
<path d="M293.97 216.461C293.98 216.461 293.989 216.457 293.996 216.45C294.003 216.444 294.007 216.434 294.007 216.425C294.007 216.415 294.003 216.406 293.996 216.399C293.989 216.392 293.98 216.388 293.97 216.388C293.961 216.388 293.951 216.392 293.944 216.399C293.937 216.406 293.934 216.415 293.934 216.425C293.934 216.434 293.937 216.444 293.944 216.45C293.951 216.457 293.961 216.461 293.97 216.461V216.461Z" fill="#DAE0F4"/>
<path d="M227.452 229.365C234.921 236.525 242.459 243.606 249.892 250.776C253.556 254.312 257.162 257.905 261.004 261.221C264.987 264.673 269.269 267.816 273.415 271.08C273.556 271.195 273.76 271.007 273.619 270.871C269.955 267.341 266.443 263.675 262.731 260.213C258.884 256.62 254.754 253.325 250.74 249.92C242.836 243.209 235.172 236.253 227.556 229.224C227.488 229.162 227.384 229.266 227.452 229.329V229.365Z" fill="#0088CC"/>
<path d="M295.758 221.093C292.094 239.193 287.954 257.189 284.803 275.404C284.688 276.041 285.619 276.329 285.792 275.676C290.608 257.785 293.429 239.475 295.795 221.119C295.795 221.119 295.758 221.093 295.758 221.119V221.093Z" fill="#0088CC"/>
<path d="M284.077 278.872L284.297 278.705C284.31 278.691 284.317 278.674 284.317 278.655C284.317 278.637 284.31 278.619 284.297 278.605C284.287 278.589 284.27 278.577 284.25 278.572C284.231 278.567 284.21 278.57 284.193 278.579L283.978 278.747C283.968 278.751 283.96 278.757 283.953 278.764C283.946 278.772 283.941 278.781 283.937 278.791C283.934 278.801 283.933 278.811 283.934 278.821C283.935 278.832 283.938 278.842 283.944 278.851C283.949 278.86 283.956 278.867 283.964 278.873C283.973 278.879 283.982 278.883 283.993 278.885C284.003 278.887 284.013 278.887 284.023 278.885C284.034 278.883 284.043 278.878 284.051 278.872H284.077Z" fill="#0088CC"/>
<path d="M180.738 183.07C183.497 186.063 186.25 189.065 189.04 192.026C191.521 194.664 193.934 197.954 196.939 200.006C197.546 200.424 198.111 199.541 197.682 199.04C195.206 196.152 192.081 193.65 189.307 191.034C186.533 188.418 183.601 185.707 180.744 183.06L180.738 183.07Z" fill="white"/>
<path d="M203.452 205.902C205.754 208.108 207.91 210.461 209.906 212.947C211.9 215.401 213.402 218.372 215.585 220.649C216.109 221.172 216.826 220.514 216.538 219.918C215.245 217.213 212.779 214.91 210.78 212.722C208.519 210.262 206.095 207.98 203.614 205.745C203.504 205.651 203.352 205.803 203.457 205.902H203.452Z" fill="white"/>
<path d="M303.709 172.621C309.294 179.326 314.544 186.298 319.627 193.384C324.557 200.262 328.75 207.63 333.759 214.424C333.805 214.502 333.88 214.558 333.967 214.581C334.055 214.603 334.147 214.59 334.225 214.545C334.303 214.499 334.359 214.424 334.382 214.337C334.404 214.25 334.391 214.157 334.346 214.08C330.901 206.058 325.646 198.784 320.443 191.812C315.328 185.02 309.742 178.595 303.725 172.584C303.722 172.581 303.719 172.579 303.716 172.577C303.713 172.576 303.709 172.575 303.705 172.575C303.702 172.574 303.698 172.575 303.695 172.576C303.691 172.577 303.688 172.579 303.685 172.581C303.683 172.584 303.68 172.587 303.679 172.59C303.677 172.593 303.676 172.597 303.676 172.6C303.676 172.604 303.676 172.608 303.677 172.611C303.678 172.615 303.68 172.618 303.683 172.621H303.709Z" fill="white"/>
<path d="M236.515 174.354C239.792 181.786 242.88 189.3 246.078 196.768C247.781 200.734 249.46 204.709 251.114 208.696C252.543 212.137 253.83 215.803 255.657 219.046C255.721 219.141 255.816 219.211 255.925 219.243C256.035 219.276 256.152 219.269 256.258 219.225C256.363 219.18 256.45 219.101 256.502 218.999C256.555 218.898 256.571 218.782 256.547 218.67C254.694 211.072 250.789 203.573 247.612 196.455C244.236 188.94 240.441 181.592 236.578 174.318C236.578 174.276 236.494 174.318 236.515 174.354V174.354Z" fill="white"/>
<path d="M223.466 224.963C240.876 222.963 258.416 222.153 275.894 220.989C284.478 220.414 293.073 219.897 301.647 219.187C310.587 218.446 319.48 217.318 328.431 216.633C328.583 216.633 328.583 216.383 328.431 216.393C319.533 216.999 310.572 217.156 301.647 217.714C292.885 218.268 284.133 218.994 275.381 219.678C258.034 221.031 240.661 222.247 223.44 224.764C223.33 224.764 223.356 224.973 223.44 224.963H223.466Z" fill="white"/>
<path d="M205.355 138.185C211.05 143.089 215.662 149.34 220.593 154.985C225.707 160.85 230.727 167.189 236.427 172.495C237.008 173.017 238.107 172.302 237.584 171.607C232.831 165.341 227 159.68 221.629 153.946C216.526 148.494 211.595 142.384 205.403 138.154C205.403 138.154 205.366 138.154 205.403 138.185H205.355Z" fill="white"/>
<path d="M269.146 130.493C274.606 137.214 280.175 143.867 285.734 150.515C288.608 153.951 291.424 157.445 294.109 161.017C296.569 164.26 298.778 167.983 301.578 170.939C302.165 171.555 303.013 170.772 302.693 170.083C300.935 166.291 297.872 162.771 295.313 159.471C292.753 156.171 290.042 152.839 287.304 149.611C281.63 142.911 275.454 136.556 269.225 130.388C269.151 130.321 269.062 130.42 269.12 130.493H269.146Z" fill="white"/>
<path d="M153.577 76.5108C149.254 76.7615 146.092 80.4588 145.548 84.6209C144.836 90.0677 148.019 95.1332 151.353 99.1335C155.818 104.491 160.649 109.526 163.13 116.184C165.496 122.524 165.308 129.762 161.157 135.292C161.12 135.344 161.199 135.386 161.235 135.339C167.841 126.801 164.941 115.552 159.382 107.327C156.059 102.403 151.348 98.4493 148.5 93.1958C145.359 87.3835 145.6 78.0774 153.588 76.5787C153.63 76.5787 153.619 76.5056 153.588 76.5108H153.577Z" fill="white"/>
<path d="M165.35 138.185C169.432 135.532 172.332 131.684 173.332 126.884C173.369 126.722 173.118 126.649 173.086 126.811C172.643 129.133 171.727 131.339 170.393 133.292C169.059 135.245 167.337 136.903 165.334 138.164L165.35 138.185Z" fill="white"/>
<path d="M151.448 147.209C145.109 149.653 138.362 149.946 131.777 151.476C127.359 152.52 118.775 154.766 117.848 160.155C116.885 165.764 124.376 168.088 128.406 169.184C136.069 171.273 142.293 174.407 146.899 181.112C146.983 181.227 147.171 181.112 147.093 180.997C144.311 176.653 140.355 173.181 135.682 170.981C130.877 168.72 121.193 168.302 119.099 162.557C116.644 155.768 129.861 152.666 134.426 151.695C140.157 150.473 146.03 149.575 151.474 147.324C151.537 147.298 151.511 147.194 151.443 147.22L151.448 147.209Z" fill="white"/>
<path d="M152.672 187.191C153.017 188.783 153.263 190.397 153.546 192C153.546 192.026 153.588 192 153.583 192C153.284 190.402 152.944 188.804 152.698 187.196H152.672V187.191Z" fill="white"/>
<path d="M170.616 142.598C169.532 146.65 167.475 150.672 164.245 153.424C160.147 156.907 155.022 156.505 150.039 157.419C147.553 157.878 142.004 158.583 140.732 161.273C139.46 163.962 142.591 165.905 144.632 166.787C145.03 166.954 145.381 166.385 144.978 166.197C144.013 165.846 143.137 165.288 142.413 164.563C140.46 162.333 142.763 160.385 144.831 159.56C146.717 158.834 148.663 158.275 150.646 157.889C154.106 157.215 157.791 157.33 161.047 155.836C166.35 153.403 169.124 147.946 170.642 142.608H170.616V142.598Z" fill="white"/>
<path d="M153.123 168.375C154.696 169.552 155.75 171.29 156.065 173.226C156.065 173.32 156.222 173.284 156.206 173.19C155.855 171.239 154.757 169.501 153.144 168.344C153.144 168.344 153.107 168.344 153.144 168.375H153.123Z" fill="white"/>
<path d="M174.06 111.087C175.191 105.802 171.385 101.165 168.737 96.9558C167.831 95.504 166.899 94.0731 165.973 92.6318C165.643 92.1096 165.282 91.6187 164.989 91.0651C164.178 89.5977 164.465 87.3835 165.968 86.4696C168.585 84.8455 172.207 87.8587 174.604 88.8509C174.945 88.9919 175.201 88.4018 174.861 88.2451C172.401 87.1276 169.909 84.9969 167.041 85.3572C165.245 85.5818 163.57 86.715 163.508 88.6368C163.466 89.9424 164.188 91.0233 164.863 92.073C166.067 93.9478 167.355 95.7651 168.622 97.5929C171.343 101.504 175.185 105.948 174.034 111.061C174.034 111.061 174.06 111.087 174.06 111.061V111.087Z" fill="white"/>
<path d="M184.215 100.094H183.775C183.755 100.099 183.736 100.111 183.723 100.128C183.71 100.144 183.703 100.165 183.703 100.186C183.703 100.207 183.71 100.227 183.723 100.244C183.736 100.26 183.755 100.272 183.775 100.277H184.215C184.236 100.272 184.254 100.26 184.267 100.244C184.28 100.227 184.287 100.207 184.287 100.186C184.287 100.165 184.28 100.144 184.267 100.128C184.254 100.111 184.236 100.099 184.215 100.094V100.094Z" fill="white"/>
<path d="M189.801 85.4617C195.658 86.3703 201.086 82.6573 204.023 77.785C207.927 71.3094 208.147 63.4813 210.508 56.4522C213.125 48.7077 219.124 42.6655 227.781 43.005C235.916 43.3235 241.155 49.6424 244.725 56.2903C248.604 63.5074 250.97 71.5967 256.9 77.5291C256.936 77.5658 256.986 77.5867 257.037 77.5872C257.089 77.5877 257.138 77.5677 257.175 77.5317C257.212 77.4957 257.233 77.4466 257.233 77.3952C257.234 77.3437 257.214 77.2942 257.178 77.2575C247.813 67.0481 247.541 47.6684 232.686 42.6708C229.789 41.7332 226.701 41.5467 223.712 42.1286C220.723 42.7106 217.932 44.0419 215.601 45.9973C210.136 50.6973 208.634 58.1651 207.226 64.8548C205.347 73.6751 201.405 86.6889 189.822 85.4251V85.4617H189.801Z" fill="white"/>
<path d="M185.141 98.0995C196.06 99.7653 206.916 94.8617 212.486 85.2632C213.774 83.0351 214.732 80.6322 215.328 78.1297C216.014 75.2836 216.323 72.2808 217.668 69.6331C220.808 63.4605 228.822 63.4291 233.832 67.2831C233.894 67.3301 233.983 67.2152 233.921 67.163C230.686 64.6302 226.153 63.45 222.196 64.9279C217.432 66.7035 216.207 71.6176 215.218 76.0773C212.109 90.1199 199.834 99.9116 185.147 98.0472C185.115 98.0472 185.11 98.0942 185.147 98.0995H185.141Z" fill="white"/>
<path d="M215.709 103.635C213.314 106.277 210.158 108.114 206.674 108.894C203.193 109.64 199.634 108.894 196.132 109.379C193.888 109.644 191.793 110.636 190.169 112.204C188.545 113.772 187.483 115.829 187.145 118.059C187.093 118.351 187.543 118.471 187.585 118.184C187.803 116.591 188.405 115.075 189.341 113.766C190.276 112.457 191.517 111.394 192.955 110.669C196.164 109.129 199.843 109.672 203.277 109.515C205.639 109.428 207.959 108.863 210.095 107.854C212.231 106.845 214.139 105.413 215.704 103.645C215.704 103.645 215.704 103.645 215.704 103.645L215.709 103.635Z" fill="white"/>
<path d="M158.445 179.681C160.033 181.611 160.978 183.986 161.15 186.476C161.321 188.967 160.711 191.449 159.403 193.577C159.288 193.76 159.576 193.927 159.686 193.744C161.02 191.573 161.622 189.032 161.402 186.494C161.183 183.956 160.154 181.556 158.466 179.644C158.466 179.644 158.466 179.644 158.466 179.644L158.445 179.681Z" fill="white"/>
<path d="M152.474 208.633C146.408 228.566 119.696 229.981 111.458 248.364C109.615 252.543 109.015 257.162 109.731 261.671C110.447 266.18 112.447 270.389 115.493 273.796C122.01 280.935 131.291 282.674 140.493 280.851C147.036 279.561 153.443 277.384 159.86 275.54C166.795 273.54 173.752 271.608 180.677 269.566C180.724 269.548 180.763 269.513 180.787 269.468C180.81 269.424 180.815 269.372 180.802 269.323C180.789 269.274 180.759 269.232 180.716 269.204C180.674 269.177 180.622 269.166 180.572 269.174C169.638 272.12 158.761 275.263 147.842 278.25C137.462 281.091 126.454 282.59 117.823 274.767C109.798 267.493 108.165 255.205 113.776 245.988C118.665 237.961 127.386 233.36 135.038 228.389C142.518 223.527 150.045 217.579 152.6 208.664C152.602 208.65 152.599 208.636 152.591 208.624C152.584 208.613 152.572 208.604 152.559 208.6C152.545 208.596 152.531 208.597 152.518 208.604C152.505 208.61 152.495 208.62 152.49 208.633H152.474Z" fill="white"/>
<path d="M192.992 269.352L196.913 271.148C196.965 271.148 197.012 271.091 196.96 271.07L193.003 269.336L192.992 269.352Z" fill="white"/>
<path d="M161.676 214.283C160.633 222.537 156.445 230.073 149.982 235.329C143.523 240.504 134.604 242.118 129.202 248.661C125.365 253.314 124.595 259.497 128.72 264.229C133.604 269.832 141.733 270.02 148.354 267.884C148.404 267.868 148.445 267.833 148.469 267.786C148.494 267.74 148.499 267.687 148.485 267.637C148.471 267.586 148.438 267.543 148.394 267.517C148.349 267.49 148.295 267.481 148.244 267.493C140.56 269.55 129.814 268.971 127.071 259.816C124.575 251.46 132.908 245.575 139.231 242.275C145.339 239.089 151.013 236.065 155.274 230.488C158.858 225.777 161.084 220.18 161.712 214.299C161.712 214.299 161.681 214.299 161.676 214.299V214.283Z" fill="white"/>
<path d="M156.184 265.07L157.937 264.631C158.005 264.631 157.974 264.506 157.906 264.526L156.152 264.96C156.139 264.965 156.129 264.975 156.123 264.988C156.117 265.001 156.116 265.015 156.119 265.029C156.123 265.042 156.132 265.054 156.144 265.061C156.156 265.069 156.17 265.072 156.184 265.07Z" fill="white"/>
<path d="M192.957 266.088C201.751 265.007 210.717 268.286 217.281 274.094C224.625 280.58 227.42 289.322 227.975 298.857C228.498 307.986 227.603 317.584 230.833 326.326C232.194 329.961 234.344 333.25 237.128 335.958C239.913 338.667 243.263 340.728 246.939 341.993C255.79 345.126 265.82 342.959 272.828 336.818C273.017 336.651 272.745 336.384 272.556 336.541C264.862 342.917 253.843 344.745 244.772 340.196C236.261 335.93 231.561 327.47 230.221 318.321C228.901 309.307 229.975 300.09 228.074 291.165C226.571 283.825 222.487 277.262 216.559 272.663C209.857 267.472 201.386 265.103 192.957 266.062V266.088Z" fill="white"/>
<path d="M280.882 322.075C285.436 315.652 285.959 307.406 290.262 300.868C294.308 294.716 301.594 291.316 308.86 291.154C316.785 290.977 322.563 295.139 327.845 300.612C332.734 305.683 337.638 310.894 344.951 312.028C351.284 313.009 361.23 310.623 362.177 303.046C362.177 302.884 361.915 302.842 361.889 303.004C361.125 307.813 356.069 310.216 351.714 310.968C347.076 311.81 342.29 310.959 338.23 308.571C332.09 304.878 328.18 298.539 322.422 294.361C312.718 287.321 298.035 289.614 290.822 299.186C285.719 305.975 285.588 315.072 280.788 322.018C280.746 322.075 280.84 322.133 280.882 322.075V322.075Z" fill="white"/>
<path d="M358.872 285.588C351.543 274.208 345.341 259.477 352.857 246.604C356.521 240.337 362.468 237.011 369.675 236.729C376.072 236.483 382.411 237.204 388.817 236.671C399.81 235.757 411.09 232.634 419.459 225.182C423.432 221.647 426.976 216.999 427.667 211.604C428.379 206.032 425.207 202.163 420.789 199.233C409.085 191.473 394.952 187.305 385.494 176.48C385.368 176.334 385.164 176.542 385.284 176.689C393.136 186.021 404.536 190.601 414.9 196.46C421.019 199.917 428.358 204.069 426.829 212.252C425.589 218.884 420.224 224.263 414.79 227.846C404.557 234.593 391.759 236.4 379.72 236.201C373.695 236.112 367.33 235.157 361.625 237.611C356.951 239.627 353.464 243.658 351.392 248.228C345.587 261.048 351.669 274.715 358.835 285.598C358.835 285.624 358.898 285.598 358.882 285.567L358.872 285.588Z" fill="white"/>
<path d="M280.646 93.9165C284.807 95.0206 289.152 95.2552 293.408 94.6055C297.664 93.9558 301.739 92.4358 305.379 90.1408C313.649 84.8768 317.674 75.7953 323.448 68.2753C329.222 60.7553 339.198 53.2876 348.793 59.1521C353.661 62.1288 354.975 67.2152 353.085 72.4792C351.3 77.4612 348.259 81.7643 347.123 87.0075C345.26 95.6085 348.222 105.807 357.351 108.732C357.466 108.768 357.513 108.591 357.403 108.554C352.425 106.779 348.986 102.376 347.793 97.3057C346.369 91.2427 348.118 84.9917 350.761 79.524C352.619 75.6805 355.079 71.6907 354.859 67.2518C354.755 65.6596 354.294 64.1111 353.511 62.7202C352.727 61.3293 351.641 60.1314 350.332 59.2148C343.961 54.5148 335.827 56.1702 329.918 60.7553C322.066 66.8653 318.365 76.422 312.032 83.8062C308.261 88.2413 303.319 91.533 297.768 93.3081C292.217 95.0831 286.278 95.2704 280.626 93.8486C280.578 93.8486 280.558 93.906 280.626 93.9165H280.646Z" fill="white"/>
<path d="M377.121 112.753C381.256 111.756 385.386 110.742 389.527 109.776C393.123 108.941 399.529 107.28 400.917 112.325C401.911 115.923 399.498 120.21 397.567 123.103C395.232 126.597 392.112 128.963 388.799 131.459C383.565 135.407 380.738 141.073 378.916 147.256C377.152 153.189 376.739 159.837 380.293 165.168C380.323 165.209 380.367 165.237 380.416 165.247C380.465 165.257 380.516 165.248 380.56 165.223C380.603 165.198 380.636 165.158 380.651 165.11C380.667 165.062 380.664 165.011 380.644 164.965C376.383 157.178 379.1 147.977 382.738 140.473C384.878 136.023 387.972 133.376 391.819 130.43C394.494 128.433 396.797 125.983 398.624 123.192C401.026 119.448 404.68 111.4 398.865 108.737C396.399 107.609 393.426 108.335 390.935 108.988C386.334 110.189 381.743 111.458 377.147 112.68C377.111 112.68 377.147 112.743 377.147 112.732L377.121 112.753Z" fill="white"/>
<path d="M329.973 91.5351L332.857 90.8875C333.284 91.3147 333.613 91.829 333.822 92.3951C334.03 92.9613 334.114 93.5658 334.066 94.1671C334.041 94.8277 333.981 95.4866 333.888 96.1411C333.781 97.3433 333.781 98.5526 333.888 99.7549C334.1 102.043 334.674 104.283 335.589 106.392C337.4 110.484 340.26 114.027 343.88 116.664C353.266 123.61 364.718 123.542 375.873 123.751C376.004 123.751 376.004 123.558 375.873 123.553C362.436 122.832 347.147 122.508 338.479 110.419C336.736 108.026 335.451 105.333 334.689 102.476C333.883 99.3423 334.506 96.4962 334.213 93.389C334.029 91.4515 331.145 88.8143 329.973 91.5299V91.5351Z" fill="white"/>
<path d="M368.37 147.413C368.009 159.356 367.747 172.48 374.85 182.736C377.875 187.117 381.969 190.658 386.46 193.489C389.009 195.075 391.682 196.455 394.453 197.614C397.421 198.873 400.545 199.776 402.519 202.507C402.587 202.601 402.744 202.507 402.681 202.413C400.006 198.345 394.421 197.139 390.323 194.993C385.198 192.314 380.377 188.883 376.713 184.371C368.26 173.968 368.234 160.139 368.464 147.413C368.464 147.403 368.46 147.394 368.453 147.387C368.446 147.38 368.437 147.376 368.427 147.376C368.418 147.376 368.408 147.38 368.401 147.387C368.395 147.394 368.391 147.403 368.391 147.413H368.37Z" fill="white"/>
<path d="M408.244 211.646C408.98 214.471 408.65 217.467 407.319 220.066C405.988 222.665 403.746 224.686 401.02 225.746C400.748 225.851 400.869 226.3 401.146 226.19C403.941 225.072 406.226 222.969 407.568 220.279C408.909 217.59 409.213 214.503 408.422 211.604C408.412 211.585 408.396 211.57 408.376 211.561C408.357 211.553 408.335 211.551 408.314 211.556C408.293 211.562 408.275 211.574 408.262 211.592C408.249 211.609 408.243 211.63 408.244 211.651V211.646Z" fill="white"/>
<path d="M366.917 223.511C359.128 224.911 350.983 226.415 344.498 231.261C338.62 235.668 335.804 241.982 335.589 249.246C335.348 257.539 338.049 265.555 340.918 273.216C342.436 277.269 344.058 281.29 345.357 285.41C346.042 287.556 346.843 289.818 346.927 292.079C347.052 295.327 344.953 299.286 341.117 298.121C340.771 298.017 340.64 298.534 340.97 298.643C343.331 299.479 345.76 298.21 346.89 296.032C348.492 292.951 347.257 289.181 346.325 286.11C343.739 277.582 339.839 269.472 337.725 260.798C335.5 251.669 335.296 240.88 342.394 233.762C348.89 227.255 358.259 225.407 366.954 223.694C367.058 223.694 367.011 223.516 366.906 223.537L366.917 223.511Z" fill="white"/>
<path d="M189.166 256.395C193.178 254.209 197.644 252.98 202.212 252.806C206.781 252.632 211.327 253.517 215.495 255.393C223.179 258.944 228.628 265.869 232.245 273.347C236.207 281.587 237.914 290.648 239.693 299.552C241.164 306.947 242.086 316.508 247.44 322.336C251.225 326.462 259.087 327.752 262.123 322.049C262.149 322.005 262.157 321.952 262.144 321.902C262.131 321.852 262.099 321.809 262.055 321.783C262.01 321.757 261.957 321.749 261.907 321.762C261.857 321.774 261.814 321.806 261.788 321.851C259.694 325.214 255.271 325.804 251.78 324.462C247.44 322.775 245.184 318.075 243.85 313.934C241.06 305.317 240.013 296.246 237.809 287.473C234.381 273.749 227.455 258.751 212.946 253.951C209.024 252.674 204.879 252.219 200.773 252.615C196.666 253.012 192.686 254.251 189.082 256.254C188.988 256.307 189.082 256.448 189.166 256.395V256.395Z" fill="white"/>
<path d="M273.215 310.143C278.716 297.834 285.071 284.005 298.298 278.386C310.102 273.373 323.46 278.256 330.516 288.543C330.84 289.019 331.589 288.596 331.296 288.094C325.213 277.744 311.222 273.07 300.046 277.128C285.725 282.313 278.847 297.191 273.168 310.132C273.168 310.163 273.199 310.19 273.215 310.158V310.143Z" fill="white"/>
<path d="M172.861 200.544C178.096 212.153 175.62 225.355 168.485 235.59C166.815 237.966 164.941 240.192 162.884 242.243C161.241 243.899 159.267 245.319 157.917 247.236C156.237 249.617 156.027 253.445 159.231 254.599C159.388 254.656 159.498 254.401 159.346 254.333C154.865 252.369 158.179 247.606 160.393 245.591C162.279 243.949 164.074 242.206 165.769 240.368C168.946 236.785 171.517 232.709 173.379 228.3C177.075 219.422 177.111 209.176 172.982 200.476C172.945 200.403 172.835 200.476 172.872 200.544H172.861Z" fill="white"/>
<path d="M168.359 254.777L170.406 253.33C170.552 253.226 170.406 252.985 170.265 253.09L168.228 254.557C168.092 254.651 168.228 254.876 168.359 254.777V254.777Z" fill="white"/>
<path d="M195.934 245.784C206.225 240.374 218.881 242.792 227.911 249.607C236.94 256.422 242.902 266.913 246.655 277.378C246.713 277.53 246.959 277.467 246.906 277.31C243.064 266.077 237.442 255.137 227.303 248.348C218.164 242.222 205.801 240.327 195.897 245.737C195.892 245.739 195.888 245.742 195.885 245.746C195.881 245.75 195.878 245.754 195.877 245.759C195.875 245.764 195.875 245.769 195.875 245.774C195.876 245.779 195.877 245.784 195.88 245.789C195.883 245.793 195.886 245.797 195.89 245.8C195.895 245.803 195.899 245.805 195.905 245.806C195.91 245.807 195.915 245.807 195.92 245.806C195.925 245.805 195.93 245.803 195.934 245.8V245.784Z" fill="white"/>
<path d="M249.758 291.651C250.161 294.455 250.642 297.917 253.118 299.724C254.919 301.045 257.384 301.333 259.127 299.797C259.206 299.729 259.091 299.615 259.012 299.682C256.788 301.63 253.579 300.445 251.988 298.299C250.559 296.372 250.156 293.959 249.774 291.645L249.758 291.651Z" fill="white"/>
<path d="M297.066 270.866C299.56 268.66 302.479 266.987 305.645 265.949C308.811 264.91 312.157 264.53 315.476 264.829C317.085 264.976 318.674 265.298 320.213 265.79C321.94 266.349 323.469 267.399 325.175 267.947C326.662 268.427 327.944 268.036 328.509 266.563C328.661 266.171 327.986 265.884 327.818 266.276C326.771 268.621 323.28 266.245 321.799 265.712C320.606 265.292 319.38 264.97 318.135 264.751C315.624 264.288 313.058 264.211 310.524 264.521C305.478 265.152 300.765 267.368 297.066 270.851C297.066 270.851 297.066 270.851 297.066 270.851V270.866Z" fill="white"/>
<path d="M324.81 244.609C326.993 236.854 331.055 229.595 337.195 224.242C343.476 218.775 350.998 216.221 359.257 215.887C364.34 215.667 371.888 214.607 372.825 208.32C373.275 205.27 371.469 202.168 370.04 199.614C368.275 196.545 366.168 193.684 363.759 191.086C363.649 190.961 363.466 191.144 363.581 191.269C368.24 196.199 376.918 207.458 368.674 212.79C365.308 214.973 361.11 214.8 357.263 215.093C354.087 215.319 350.96 216 347.977 217.114C335.97 221.657 327.951 232.452 324.789 244.598L324.81 244.609Z" fill="white"/>
<path d="M334.463 123.276C338.091 127.454 343.561 129.37 348.528 131.48C351.041 132.524 353.789 133.376 355.961 135.067C357.301 136.123 358.387 137.463 359.14 138.991C359.894 140.519 360.296 142.196 360.316 143.898C360.326 143.979 360.366 144.053 360.427 144.107C360.488 144.161 360.567 144.191 360.648 144.191C360.73 144.191 360.809 144.161 360.87 144.107C360.931 144.053 360.971 143.979 360.981 143.898C360.85 129.892 341.954 131.391 334.511 123.224C334.479 123.187 334.432 123.224 334.463 123.276Z" fill="white"/>
<path d="M366.191 132.133C367.521 133.521 368.504 135.203 369.062 137.041C369.619 138.879 369.735 140.822 369.4 142.713C369.369 142.896 369.657 142.974 369.683 142.791C369.981 140.868 369.822 138.901 369.217 137.05C368.612 135.199 367.579 133.517 366.202 132.138C366.202 132.138 366.202 132.138 366.202 132.138L366.191 132.133Z" fill="white"/>
<path d="M279.94 110.001C286.907 113.526 294.759 113.98 302.348 112.549C306.913 111.693 311.933 109.009 316.612 110.246C320.91 111.39 323.354 115.589 325.406 119.182C325.531 119.406 325.877 119.208 325.751 118.978C324.134 115.991 322.344 112.784 319.412 110.889C316.272 108.852 312.723 109.364 309.294 110.366C299.454 113.233 289.556 114.711 279.982 109.954C279.951 109.954 279.919 109.985 279.951 110.001H279.94Z" fill="white"/>
<path d="M222.618 101.353C226.423 97.6033 228.48 91.9529 233.212 89.1799C239.703 85.3781 245.141 90.7152 248.989 95.5145C252.161 99.4677 255.443 102.585 260.08 104.753C264.587 106.841 269.466 108.168 274.313 109.238C274.357 109.251 274.405 109.245 274.445 109.223C274.485 109.2 274.515 109.163 274.527 109.118C274.54 109.074 274.534 109.027 274.511 108.986C274.489 108.946 274.451 108.917 274.407 108.904C268.717 107.39 262.891 106.063 257.824 102.987C255.187 101.359 252.843 99.3011 250.889 96.8983C248.889 94.5066 247.083 91.885 244.607 89.9632C241.294 87.4148 237.133 86.4748 233.385 88.6681C228.465 91.556 226.444 97.3684 222.581 101.301C222.574 101.308 222.57 101.317 222.57 101.327C222.57 101.337 222.574 101.346 222.581 101.353C222.588 101.36 222.598 101.364 222.607 101.364C222.617 101.364 222.627 101.36 222.634 101.353H222.618Z" fill="white"/>
<path d="M185.215 126.315C185.042 131.109 181.897 133.026 178.672 135.877C176.691 137.627 175.278 139.927 174.615 142.483C174.608 142.541 174.621 142.599 174.653 142.648C174.685 142.697 174.734 142.732 174.791 142.747C174.847 142.763 174.907 142.757 174.96 142.731C175.012 142.706 175.054 142.662 175.076 142.608C175.614 140.54 176.626 138.626 178.034 137.015C179.311 135.605 180.939 134.598 182.305 133.287C183.253 132.392 184.003 131.31 184.506 130.109C185.01 128.909 185.257 127.616 185.231 126.315H185.215Z" fill="white"/>
<path d="M188.93 207.672C190.376 211.063 190.742 214.815 189.977 218.419C189.344 221.354 187.329 223.678 186.627 226.53C185.162 232.462 191.595 232.133 195.432 232.692C195.651 232.723 195.751 232.394 195.526 232.358C194.479 232.19 193.432 232.154 192.385 232.07C191.59 232.038 190.799 231.93 190.024 231.747C187.899 231.151 186.952 229.256 187.093 227.088C187.245 224.759 189.307 222.456 189.988 220.19C191.185 216.03 190.834 211.578 188.998 207.656C188.998 207.625 188.936 207.656 188.946 207.656L188.93 207.672Z" fill="white"/>
<path d="M208.899 232.587C211.228 232.342 213.571 232.248 215.913 232.305C216.018 232.305 216.018 232.143 215.913 232.143C213.571 232.086 211.227 232.185 208.899 232.441C208.805 232.441 208.805 232.598 208.899 232.587V232.587Z" fill="white"/>
<path d="M251.318 269.503L249.879 266.892L251.318 269.503Z" fill="white"/>
<path d="M247.159 260.432C253.058 264.187 252.686 270.929 255.052 276.725C256.261 279.676 259.292 282.517 262.501 280.339C262.625 280.26 262.713 280.136 262.748 279.993C262.782 279.85 262.76 279.7 262.685 279.573C262.611 279.446 262.49 279.353 262.349 279.313C262.207 279.272 262.055 279.289 261.925 279.357C256.241 282.595 254.252 270.657 252.985 267.446C251.823 264.506 250.09 261.827 247.196 260.37C247.187 260.366 247.178 260.366 247.17 260.368C247.161 260.371 247.154 260.377 247.15 260.385C247.145 260.392 247.143 260.401 247.145 260.41C247.147 260.419 247.152 260.427 247.159 260.432V260.432Z" fill="white"/>
<path d="M312.336 254.542C312.831 254.818 313.407 254.912 313.964 254.809C314.521 254.706 315.025 254.412 315.388 253.978C316.492 252.776 316.366 250.917 316.256 249.413C316.256 249.131 315.791 249.137 315.817 249.413C315.916 250.583 316.031 251.81 315.581 252.923C315.058 254.166 313.686 255.147 312.346 254.526L312.336 254.542Z" fill="white"/>
<path d="M168.994 166.897C167.083 159.424 176.678 155.298 181.541 151.591C185.414 148.63 188.963 144.927 190.324 140.144C190.343 140.048 190.325 139.949 190.274 139.867C190.223 139.784 190.143 139.723 190.049 139.697C189.955 139.671 189.855 139.68 189.768 139.724C189.681 139.768 189.615 139.844 189.581 139.935C186.911 146.985 180.478 150.786 174.773 155.178C171.454 157.737 166 162.218 168.805 166.975C168.819 166.995 168.839 167.009 168.862 167.015C168.885 167.022 168.909 167.02 168.931 167.011C168.953 167.002 168.971 166.986 168.982 166.965C168.994 166.944 168.998 166.92 168.994 166.897V166.897Z" fill="white"/>
<path d="M193.696 135.402C194.659 132.002 195.879 128.477 198.197 125.735C200.783 122.675 204.091 121.798 207.996 122.054C211.577 122.289 214.576 122.472 217.942 121.009C221.485 119.479 224.715 117.14 227.929 115.03C231.378 112.769 234.943 109.703 239.303 109.808C243.663 109.912 247.448 112.179 251.054 114.325C254.153 116.168 257.231 117.766 260.738 118.68C264.245 119.594 268.014 119.97 271.683 120.32C271.882 120.32 271.882 120.028 271.683 120.012C267.15 119.568 262.517 119.129 258.21 117.552C253.902 115.975 250.253 112.951 246.076 110.988C243.176 109.62 239.889 108.701 236.654 109.343C232.99 110.069 229.688 112.748 226.584 114.664C222.919 116.936 219.219 119.887 214.958 120.931C210.954 121.928 206.709 120.315 202.788 121.709C197.198 123.699 194.9 130.148 193.57 135.376C193.57 135.433 193.644 135.459 193.659 135.376L193.696 135.402Z" fill="white"/>
<path d="M289.646 120.2L290.232 119.907C290.483 119.777 290.263 119.385 290.007 119.526L289.426 119.819C289.169 119.944 289.394 120.341 289.646 120.2Z" fill="white"/>
<path d="M213.057 130.18L222.301 127.375C225.73 126.331 228.923 125.182 232.524 126.169C232.559 126.179 232.597 126.174 232.629 126.156C232.661 126.138 232.684 126.108 232.694 126.072C232.704 126.037 232.699 125.999 232.681 125.967C232.663 125.936 232.633 125.912 232.597 125.903C229.614 125.109 227.096 125.673 224.191 126.576C220.464 127.729 216.742 128.888 213.026 130.054C212.947 130.054 212.979 130.206 213.057 130.18V130.18Z" fill="white"/>
<path d="M151.64 61.6431C158.356 71.4138 164.941 81.3152 171.28 91.3366C177.619 101.358 183.361 111.844 189.794 121.824C191.029 123.735 193.871 122.064 192.845 120.043C187.433 109.385 180.461 99.2065 173.693 89.3626C166.982 79.6127 159.926 70.1971 152.42 61.0373C152.064 60.6091 151.321 61.1783 151.64 61.6431V61.6431Z" fill="#73BDE2"/>
<path d="M216.321 22.8002C218.352 37.0673 220.54 51.3658 223.34 65.5076C224.701 72.4009 226.109 79.289 227.648 86.151C228.437 89.6603 229.245 93.1662 230.072 96.6686C230.873 100.089 231.396 103.797 232.956 106.962C233.663 108.387 236.002 107.698 235.94 106.152C235.803 102.789 234.579 99.4364 233.746 96.1934C232.857 92.7119 231.984 89.2304 231.129 85.7489C229.418 78.7616 227.706 71.7795 226.088 64.7712C222.854 50.7705 219.577 36.801 216.667 22.7219C216.619 22.4869 216.279 22.5913 216.311 22.8211L216.321 22.8002Z" fill="#73BDE2"/>
<path d="M134.855 127.61C139.906 131.699 144.92 135.846 149.992 139.914C152.316 141.778 154.609 143.684 156.823 145.658C159.137 147.747 161.189 150.222 163.628 152.165C164.806 153.116 167.015 151.852 165.936 150.39C162.487 145.69 156.855 142.034 152.144 138.66C146.606 134.681 140.79 131.046 135.106 127.271C134.917 127.145 134.682 127.443 134.865 127.589L134.855 127.61Z" fill="#73BDE2"/>
<path d="M137.739 171.111C142.398 172.793 147.093 174.391 151.835 175.811C155.112 176.809 160.09 179.253 163.393 177.378C163.649 177.217 163.839 176.971 163.931 176.684C164.022 176.396 164.008 176.085 163.891 175.807C163.774 175.529 163.562 175.301 163.293 175.164C163.023 175.027 162.714 174.99 162.419 175.059C160.226 175.676 158.064 175.028 155.882 174.636C153.861 174.288 151.842 173.909 149.825 173.498C145.798 172.711 141.785 171.841 137.786 170.887C137.772 170.883 137.758 170.882 137.743 170.884C137.729 170.886 137.715 170.891 137.702 170.898C137.689 170.905 137.678 170.915 137.669 170.926C137.661 170.938 137.654 170.951 137.65 170.965C137.646 170.979 137.646 170.994 137.647 171.008C137.649 171.023 137.654 171.037 137.661 171.049C137.669 171.062 137.678 171.073 137.69 171.082C137.701 171.091 137.715 171.097 137.729 171.101L137.739 171.111Z" fill="#73BDE2"/>
<path d="M291.525 21.5103C290.442 35.1769 289.322 48.8643 287.667 62.4787C286.861 69.1213 286.047 75.7605 285.223 82.3962C284.799 85.8847 284.338 89.3679 283.878 92.8407C283.417 96.3134 282.642 99.8123 282.857 103.285C282.865 103.632 282.997 103.964 283.229 104.222C283.46 104.48 283.777 104.647 284.121 104.694C284.465 104.741 284.815 104.663 285.107 104.476C285.399 104.288 285.615 104.003 285.715 103.672C286.762 100.653 286.956 97.2848 287.353 94.1253C287.783 90.7361 288.144 87.3364 288.505 83.9368C289.248 76.9738 289.826 69.9952 290.238 63.0009C291.044 49.1777 291.698 35.3701 291.745 21.5208C291.745 21.4917 291.733 21.4638 291.713 21.4432C291.692 21.4227 291.664 21.4111 291.635 21.4111C291.606 21.4111 291.578 21.4227 291.557 21.4432C291.537 21.4638 291.525 21.4917 291.525 21.5208V21.5103Z" fill="#73BDE2"/>
<path d="M359.027 32.8425C356.237 38.5556 353.997 44.5664 351.489 50.4101C348.982 56.2538 346.354 62.0974 343.763 67.9306C341.24 73.6176 338.691 79.2994 336.168 84.9916C334.87 87.9196 333.583 90.8527 332.305 93.7911C331.185 96.3395 329.139 99.3893 329.217 102.22C329.22 102.527 329.314 102.826 329.486 103.081C329.659 103.335 329.903 103.533 330.187 103.651C330.471 103.768 330.784 103.799 331.086 103.741C331.388 103.682 331.667 103.537 331.887 103.322C334.017 101.489 334.886 97.8905 335.985 95.3525C337.192 92.5673 338.375 89.7682 339.534 86.9552C341.968 81.0384 344.282 75.0799 346.517 69.09C348.694 63.2567 350.746 57.387 352.798 51.5172C354.975 45.355 357.373 39.1771 359.043 32.853C359.043 32.853 359.016 32.8216 359.006 32.853L359.027 32.8425Z" fill="#73BDE2"/>
<path d="M390.796 88.4644C386.781 94.4804 383.468 100.998 379.548 107.108C375.627 113.218 371.398 119.166 367.336 125.182C366.153 126.931 368.906 128.467 370.131 126.816C374.463 120.78 378.363 114.448 381.804 107.865C385.106 101.687 388.682 95.1593 390.828 88.4801C390.828 88.4801 390.828 88.4488 390.796 88.4801V88.4644Z" fill="#73BDE2"/>
<path d="M414.021 134.081C404.076 141.042 394.266 148.781 386.336 157.998C385.467 159.011 386.86 160.453 387.818 159.481C396.376 150.781 404.667 141.966 414.047 134.107C414.047 134.107 414.047 134.065 414.021 134.107V134.081Z" fill="#73BDE2"/>
<path d="M391.056 162.63H389.742C389.603 162.63 389.47 162.685 389.372 162.783C389.274 162.881 389.219 163.014 389.219 163.153C389.219 163.291 389.274 163.424 389.372 163.522C389.47 163.62 389.603 163.675 389.742 163.675H391.056C391.195 163.675 391.328 163.62 391.426 163.522C391.524 163.424 391.579 163.291 391.579 163.153C391.579 163.014 391.524 162.881 391.426 162.783C391.328 162.685 391.195 162.63 391.056 162.63Z" fill="#73BDE2"/>
<path d="M153.122 204.925C158.66 204.711 164.271 205.374 169.772 205.051C169.938 205.036 170.092 204.96 170.204 204.838C170.316 204.715 170.378 204.556 170.378 204.39C170.378 204.224 170.316 204.064 170.204 203.942C170.092 203.82 169.938 203.744 169.772 203.729C164.391 203.097 158.471 204.053 153.122 204.706C152.986 204.706 152.975 204.93 153.122 204.925V204.925Z" fill="#73BDE2"/>
<path d="M166.732 234.196C173.981 233.151 181.168 231.783 188.35 230.347C189.187 230.18 188.831 228.9 187.999 229.073C180.849 230.545 173.73 232.102 166.664 233.945C166.501 233.987 166.575 234.217 166.732 234.196Z" fill="#73BDE2"/>
<path d="M194.735 253.262C199.289 252.066 203.838 249.883 208.141 247.972C208.664 247.737 208.282 246.813 207.743 247.032C203.383 248.808 198.656 250.573 194.657 253.027C194.633 253.044 194.615 253.069 194.607 253.098C194.598 253.127 194.6 253.157 194.612 253.185C194.623 253.212 194.644 253.235 194.67 253.249C194.697 253.263 194.727 253.268 194.756 253.262H194.735Z" fill="#73BDE2"/>
<path d="M226.477 266.083L230.026 263.064C230.345 262.787 229.874 262.312 229.555 262.594L226.09 265.696C225.823 265.931 226.21 266.312 226.477 266.083V266.083Z" fill="#73BDE2"/>
<path d="M338.664 257.68C337.167 256.73 335.733 255.654 334.22 254.74C333.529 254.322 332.88 255.435 333.587 255.816C335.157 256.657 336.806 257.346 338.387 258.155C338.449 258.183 338.519 258.186 338.584 258.165C338.649 258.144 338.703 258.1 338.738 258.041C338.772 257.982 338.783 257.913 338.77 257.847C338.756 257.78 338.719 257.721 338.664 257.68V257.68Z" fill="#73BDE2"/>
<path d="M359.57 237.804C355.943 235.538 352.446 233.104 348.955 230.65C348.044 230.013 347.16 231.517 348.081 232.138C351.647 234.524 355.443 236.546 359.413 238.175C359.628 238.269 359.754 237.924 359.57 237.804V237.804Z" fill="#73BDE2"/>
<path d="M389.34 212.419C383.148 209.949 376.857 207.719 370.586 205.484C369.57 205.118 369.083 206.8 370.136 207.113C376.501 209.014 382.845 210.978 389.272 212.665C389.305 212.674 389.34 212.669 389.369 212.653C389.399 212.636 389.42 212.608 389.429 212.576C389.438 212.543 389.434 212.508 389.417 212.479C389.401 212.45 389.373 212.428 389.34 212.419V212.419Z" fill="#73BDE2"/>
<path d="M413.426 182.449C404.088 183.368 394.734 183.906 385.359 184.188C384.339 184.214 384.339 185.812 385.359 185.754C394.78 185.301 404.163 184.255 413.452 182.621C413.552 182.621 413.531 182.428 413.426 182.438V182.449Z" fill="#73BDE2"/>
<path d="M146.496 292.33C149.208 291.452 151.888 290.45 154.552 289.405C154.375 288.861 154.066 288.369 153.653 287.974C153.239 287.578 152.733 287.291 152.181 287.139C151.441 286.908 150.657 286.858 149.893 286.992C147.983 287.332 146.423 288.523 144.915 289.687C144.732 288.251 144.465 286.7 143.403 285.723C142.534 284.93 140.963 284.883 140.199 285.645C142.713 281.254 144.004 276.272 143.937 271.216C143.905 269.362 143.675 267.451 142.743 265.842C140.99 262.808 136.985 261.555 133.562 262.244C130.139 262.934 127.192 265.226 124.883 267.874C123.176 269.95 121.577 272.113 120.094 274.355C120.273 273.753 120.284 273.114 120.124 272.507C119.965 271.901 119.641 271.349 119.189 270.913C117.592 269.514 114.682 270.182 113.865 272.14C114.797 269.843 116.535 267.963 117.859 265.874C119.56 263.174 120.602 259.607 117.917 256.959C117.209 256.299 116.358 255.808 115.431 255.526C114.504 255.244 113.524 255.177 112.567 255.33C108.102 255.952 105.239 259.419 102.622 262.72C105.771 257.818 107.24 252.029 106.809 246.223C106.652 244.238 106.171 242.087 104.59 240.87C104.016 240.434 103.344 240.143 102.632 240.024C101.505 239.847 100.351 240.03 99.3346 240.546C98.3178 241.061 97.4899 241.884 96.9686 242.896C92.8282 250.688 91.4516 259.727 94.7754 270.354C102.124 293.86 124.999 299.275 146.496 292.33Z" fill="#303757"/>
<path d="M147.124 294.596C149.841 293.703 152.515 292.711 155.174 291.672C156.713 291.071 157.232 289.713 156.582 288.22C154.101 282.475 147.454 284.799 143.727 287.656L147.187 289.06C146.663 285.253 143.235 280.611 139.011 283.619L142.235 286.846C146.135 279.791 150.029 265.493 140.618 260.907C130.672 256.051 123.004 266.13 118.063 273.18L122.365 274.992C122.852 271.979 121.805 268.882 118.56 268.031C117.27 267.705 115.908 267.817 114.689 268.349C113.47 268.882 112.464 269.804 111.829 270.971L115.896 273.342C117.419 269.973 120.298 267.393 121.423 263.821C122.501 260.417 121.664 256.777 118.707 254.594C112.059 249.69 104.966 256.051 100.952 261.075L104.652 263.921C107.429 259.509 109 254.451 109.211 249.246C109.379 245.021 108.714 239.402 103.946 237.935C93.5972 234.755 90.6137 251.654 90.5561 258.51C90.4095 276.109 101.836 292.397 119.246 296.366C128.479 298.455 138.168 297.411 147.124 294.596C150.003 293.682 148.773 289.144 145.873 290.063C134.028 293.818 120.293 294.351 109.562 287.222C97.1723 278.997 92.0845 261.195 97.4079 247.533C98.1355 245.664 99.0934 242.604 101.438 242.358C104.244 242.066 104.459 245.533 104.511 247.528C104.62 252.485 103.254 257.363 100.585 261.545C99.2033 263.754 102.59 266.511 104.286 264.391C106.605 261.487 111.478 255.257 115.801 258.333C120.125 261.409 113.184 267.952 111.808 270.965C110.588 273.665 114.425 276.052 115.875 273.336C116.351 272.464 118.094 271.952 117.801 273.738C117.382 276.35 120.528 277.812 122.109 275.551C125.48 270.725 130.981 261.973 138.173 264.955C141.644 266.396 141.712 270.203 141.497 273.446C141.208 277.322 140.064 281.086 138.147 284.47C137.1 286.387 139.346 289.123 141.366 287.687C142.303 287.019 142.539 289.729 142.622 290.298C142.821 291.698 144.967 292.559 146.082 291.703C147.684 290.476 151.207 287.609 152.494 290.58L153.902 287.128C151.243 288.173 148.563 289.16 145.852 290.053C143.005 291.024 144.224 295.546 147.124 294.596Z" fill="#303757"/>
<path d="M442.584 217.453C441.537 215.364 440.271 213.385 438.433 211.975C437.856 211.457 437.116 211.155 436.34 211.119C434.816 211.171 433.895 212.795 433.419 214.252C432.156 218.13 431.922 222.268 432.738 226.263C432.111 224.657 430.97 223.303 429.493 222.409C429.152 222.161 428.73 222.048 428.31 222.091C427.862 222.239 427.487 222.553 427.263 222.968C425.492 225.569 424.585 228.66 424.672 231.804C423.977 230.722 422.891 229.95 421.639 229.647C420.387 229.344 419.067 229.534 417.952 230.178C416.838 230.822 416.015 231.869 415.655 233.103C415.295 234.337 415.426 235.662 416.02 236.802C413.518 234.441 408.765 235.381 407.352 238.509C405.373 232.535 401.07 227.219 395.313 224.634C389.555 222.049 382.394 222.472 377.354 226.258C372.313 230.044 369.926 237.225 372.287 243.074C370.533 240.922 367.052 240.671 364.739 242.207C362.425 243.742 361.3 246.687 361.514 249.45C361.577 250.28 361.713 251.225 361.158 251.842C360.76 252.189 360.287 252.441 359.776 252.578C355.961 254.108 354.814 258.97 355.024 263.064C355.547 272.741 360.63 281.77 367.55 288.575C369.878 290.848 372.386 292.929 375.05 294.8C374.289 292.647 373.345 290.563 372.229 288.57C366.576 278.35 353.909 263.921 363.603 252.218C371.522 242.635 387.372 245.69 398.207 245.648C412.016 245.596 427.263 241.674 436.371 230.624C439.48 226.8 441.612 222.281 442.584 217.453V217.453Z" fill="#0088CC"/>
<path d="M444.603 216.268C442.656 212.565 437.563 205.651 432.999 210.252C429.136 214.153 429.534 221.955 430.434 226.869L434.737 225.057C433.517 222.341 429.806 218.028 426.492 220.357C423.268 222.634 422.305 228.138 422.305 231.773L426.691 230.587C424.404 227.537 420.253 226.049 416.746 228.091C413.239 230.133 412.47 234.452 413.982 237.956L417.683 235.11C413.81 231.914 407.769 232.707 405.314 237.293L409.622 237.857C405.958 227.365 396.269 219.203 384.67 220.837C374.049 222.336 366.145 233.172 370.013 243.664L373.95 241.376C369.129 236.295 361.241 239.543 359.534 245.784C359.349 246.478 359.228 247.188 359.173 247.904C359.136 248.39 359.414 249.779 359.173 250.171C358.932 250.562 357.838 250.865 357.404 251.147C356.875 251.498 356.384 251.902 355.938 252.353C353.803 254.531 352.965 257.633 352.703 260.589C351.411 275.404 362.649 288.721 373.856 296.8C375.489 297.975 377.991 296.011 377.315 294.147C374.086 285.212 367.428 278.104 364.025 269.273C362.455 265.211 361.628 260.662 363.549 256.568C365.381 252.672 368.967 250.082 373.013 248.855C381.042 246.416 389.669 247.956 397.897 247.967C407.12 247.967 416.505 246.348 424.859 242.342C434.846 237.554 442.468 228.994 444.86 218.07C445.504 215.124 440.96 213.86 440.316 216.821C435.668 238.065 412.391 243.94 393.427 243.147C385.02 242.792 375.949 241.982 368.124 245.758C360.068 249.627 356.362 258.234 358.309 266.777C360.738 277.42 369.118 285.311 372.772 295.411L376.232 292.758C366.962 286.089 358.807 276.428 357.503 264.699C357.236 262.328 357.189 259.706 358.152 257.466C358.573 256.377 359.345 255.459 360.346 254.855C361.277 254.333 362.293 254.108 363.005 253.231C364.575 251.288 363.418 248.787 364.214 246.604C365.198 243.914 368.401 242.363 370.615 244.698C372.186 246.332 375.379 244.651 374.552 242.41C371.526 234.232 377.692 226.143 386.067 225.37C394.966 224.545 402.294 231.078 405.068 239.099C405.696 240.901 408.361 241.554 409.376 239.658C410.287 237.956 412.705 237.078 414.343 238.426C416.469 240.18 419.107 238.045 418.044 235.58C416.798 232.702 420.745 230.446 422.624 232.969C423.943 234.723 427.016 234.305 427.016 231.778C427.016 229.417 427.675 227.741 428.408 225.584C428.963 225.167 429.015 224.848 428.56 224.629C428.064 224.239 428.209 224.333 428.994 224.911C429.723 225.626 430.3 226.48 430.69 227.423C431.852 230.034 435.443 228.049 434.998 225.616C434.311 222.189 434.491 218.646 435.522 215.307C436.045 213.683 436.255 213.088 437.725 214.492C438.882 215.713 439.831 217.114 440.536 218.639C441.944 221.323 446.011 218.957 444.603 216.268Z" fill="#0088CC"/>
<path d="M101.794 278.026C101.355 275.335 103.173 275.129 107.248 277.41C107.457 278.125 107.5 278.879 107.374 279.613C107.332 280.057 107.897 280.136 108.138 279.822L112.436 280.282C112.474 280.402 112.55 280.506 112.652 280.58C112.754 280.655 112.877 280.695 113.004 280.695C113.13 280.695 113.253 280.655 113.355 280.58C113.457 280.506 113.533 280.402 113.572 280.282C114.671 276.945 117.958 273.3 121.826 275.263C125.972 277.352 122.972 282.235 121.093 284.773C120.617 285.415 121.591 285.979 122.14 285.562C125.773 285.676 126.748 286.878 125.066 289.165C124.961 289.277 124.9 289.423 124.893 289.576C124.885 289.729 124.933 289.879 125.026 290.001C125.12 290.123 125.254 290.207 125.404 290.239C125.554 290.272 125.711 290.25 125.846 290.178L128.317 291.818C128.317 291.969 128.377 292.114 128.484 292.22C128.591 292.327 128.736 292.387 128.887 292.387C129.039 292.387 129.184 292.327 129.291 292.22C129.398 292.114 129.458 291.969 129.458 291.818C129.568 289.322 127.396 288.042 125.197 289.066L125.977 290.074C128.887 286.564 125.056 281.593 121.219 284.637L122.266 285.426C124.752 282.078 127.448 275.947 121.92 273.859C117.382 272.14 113.734 275.984 112.499 279.969H113.634C112.446 277.149 109.138 276.705 107.489 279.41L108.253 279.613C108.327 277.295 107.248 274.658 104.542 274.605C104.113 274.581 103.685 274.66 103.293 274.836C102.901 275.011 102.558 275.278 102.291 275.614C102.024 275.95 101.842 276.345 101.76 276.765C101.678 277.186 101.699 277.62 101.82 278.031C101.82 278.031 101.862 278.031 101.857 278.031L101.794 278.026Z" fill="#0088CC"/>
<path d="M132.619 293.322C132.76 293.221 132.88 293.093 132.97 292.945C133.06 292.797 133.119 292.632 133.142 292.46C133.152 292.427 133.155 292.392 133.15 292.357C133.146 292.323 133.133 292.29 133.114 292.26C133.096 292.231 133.07 292.206 133.041 292.188C133.012 292.169 132.978 292.157 132.944 292.152C132.909 292.148 132.874 292.151 132.841 292.161C132.807 292.171 132.777 292.189 132.751 292.212C132.725 292.235 132.704 292.264 132.691 292.296C132.677 292.328 132.67 292.363 132.671 292.397C132.665 292.515 132.633 292.63 132.578 292.735C132.522 292.839 132.446 292.931 132.352 293.003C132.179 293.149 132.41 293.452 132.598 293.322H132.619Z" fill="#0088CC"/>
<path d="M139.198 291.489C138.821 290.094 140.68 289.238 141.292 290.643C141.423 290.94 141.816 290.857 141.978 290.643C142.637 289.729 143.234 288.768 143.857 287.823C144.197 287.301 143.334 286.815 143.03 287.342C142.449 288.303 141.836 289.259 141.292 290.241H141.978C140.931 288.481 138.125 289.546 138.942 291.562C138.952 291.595 138.974 291.623 139.005 291.64C139.035 291.656 139.071 291.66 139.104 291.651C139.137 291.641 139.166 291.618 139.182 291.588C139.199 291.558 139.203 291.522 139.193 291.489H139.198Z" fill="#0088CC"/>
<path d="M96.3879 253.946C99.6594 252.38 99.115 256.5 98.6021 257.487C98.552 257.574 98.5382 257.678 98.5636 257.776C98.5891 257.873 98.6517 257.957 98.7382 258.009C99.9735 258.902 102.449 261.064 100.162 262.516C99.4343 262.981 100.162 264.156 100.832 263.66C103.554 261.654 101.622 258.302 99.0261 257.325L99.2878 257.79C99.6332 256.583 99.874 255.142 98.8952 254.134C98.5649 253.786 98.1245 253.561 97.6479 253.499C97.1713 253.436 96.6876 253.539 96.278 253.79C96.1733 253.852 96.278 253.998 96.3722 253.946H96.3879Z" fill="#0088CC"/>
<path d="M378.582 239.486C379.284 237.136 381.435 233.564 384.487 235.454C385.848 236.29 386.481 237.763 386.895 239.261C386.931 239.378 387 239.481 387.094 239.559C387.188 239.638 387.302 239.687 387.423 239.703C387.545 239.718 387.668 239.699 387.778 239.646C387.889 239.594 387.982 239.511 388.046 239.408C388.329 238.468 389.03 238.107 390.14 238.332C391.396 237.507 392.094 237.721 392.234 238.974C392.282 239.126 392.373 239.261 392.496 239.364C392.619 239.466 392.768 239.532 392.927 239.553C393.086 239.574 393.247 239.549 393.392 239.481C393.537 239.414 393.66 239.307 393.746 239.173C394.793 237.491 396.714 237.246 398.321 238.186C399.143 238.666 399.75 237.491 399.044 236.948C396.824 235.24 393.773 236.081 392.317 238.337L393.83 238.535C392.113 234.462 388.769 235.073 386.931 238.776H388.02C386.973 236.723 385.816 234.076 383.063 234.227C380.31 234.379 379.122 237.172 378.504 239.449C378.504 239.456 378.507 239.463 378.512 239.468C378.516 239.473 378.523 239.475 378.53 239.475C378.537 239.475 378.544 239.473 378.549 239.468C378.553 239.463 378.556 239.456 378.556 239.449L378.582 239.486Z" fill="#73BDE2"/>
<path d="M403.626 240.332L404.217 240.055C404.252 240.035 404.283 240.007 404.308 239.975C404.332 239.943 404.35 239.906 404.36 239.866C404.371 239.827 404.373 239.786 404.367 239.746C404.362 239.706 404.348 239.667 404.327 239.632C404.286 239.561 404.218 239.51 404.139 239.488C404.059 239.467 403.975 239.477 403.903 239.517L403.327 239.846C403.261 239.886 403.213 239.951 403.193 240.026C403.174 240.101 403.184 240.181 403.223 240.248C403.263 240.315 403.328 240.363 403.403 240.382C403.478 240.402 403.558 240.391 403.626 240.353V240.332Z" fill="#73BDE2"/>
<path d="M418.787 237.616L421.604 235.475C421.68 235.513 421.765 235.532 421.851 235.529C421.936 235.526 422.02 235.503 422.094 235.461C422.169 235.419 422.232 235.359 422.278 235.287C422.323 235.214 422.351 235.132 422.357 235.047C422.488 233.48 422.724 231.705 423.959 230.566C426.184 228.477 428.146 230.216 429.664 231.903C429.783 232.015 429.934 232.086 430.096 232.105C430.258 232.124 430.422 232.09 430.563 232.008C430.704 231.926 430.814 231.801 430.878 231.651C430.942 231.502 430.955 231.335 430.915 231.177C431.496 229.72 432.365 229.141 433.533 229.433C434.454 229.532 434.433 228.112 433.533 228.002C431.224 227.731 428.712 228.879 429.471 231.574L430.727 230.848C429.063 228.953 426.979 227.443 424.446 228.655C422.012 229.804 421.263 232.577 421.384 235.047L422.017 234.567C419.803 233.82 417.981 235.371 418.562 237.653C418.594 237.789 418.829 237.763 418.814 237.616H418.787Z" fill="#73BDE2"/>
<path d="M436.678 223.072C436.773 223.061 436.86 223.016 436.923 222.945C436.986 222.875 437.021 222.783 437.021 222.689C437.021 222.594 436.986 222.502 436.923 222.432C436.86 222.361 436.773 222.316 436.678 222.305C436.584 222.316 436.497 222.361 436.434 222.432C436.371 222.502 436.336 222.594 436.336 222.689C436.336 222.783 436.371 222.875 436.434 222.945C436.497 223.016 436.584 223.061 436.678 223.072V223.072Z" fill="#73BDE2"/>
<path d="M360.262 250.322C361.346 250.364 362.586 250.473 363.45 251.22C363.505 251.274 363.574 251.312 363.648 251.331C363.723 251.351 363.801 251.351 363.876 251.331C363.95 251.312 364.019 251.274 364.074 251.221C364.13 251.167 364.171 251.101 364.193 251.027C364.853 248.938 367.014 248.327 368.956 247.993C369.899 247.836 369.511 246.311 368.559 246.546C366.946 246.933 365.219 247.476 364.162 248.839C363.989 249.058 363.638 250.207 363.413 250.327C363.052 250.547 360.707 250.139 360.273 250.176C360.253 250.176 360.234 250.183 360.221 250.197C360.207 250.211 360.199 250.229 360.199 250.249C360.199 250.268 360.207 250.287 360.221 250.301C360.234 250.314 360.253 250.322 360.273 250.322H360.262Z" fill="#73BDE2"/>
<path d="M364.194 285.05C364.126 284.005 364.848 282.804 366.021 282.903C366.14 282.907 366.256 282.87 366.351 282.799C366.447 282.728 366.515 282.627 366.544 282.512C366.795 281.755 367.099 281.243 367.926 281.044C368.879 280.82 368.449 279.258 367.523 279.593C366.392 280.016 365.346 281.07 365.487 282.371L365.879 281.849C364.414 282.167 363.262 283.645 363.958 285.118C363.974 285.141 363.996 285.159 364.022 285.169C364.048 285.179 364.077 285.18 364.104 285.172C364.131 285.165 364.155 285.149 364.172 285.127C364.189 285.105 364.199 285.078 364.199 285.05H364.194Z" fill="#73BDE2"/>
</svg>
